<svg width="508" height="87" viewBox="0 0 508 87" fill="none" xmlns="http://www.w3.org/2000/svg">
<path d="M27.8851 68.931C46.3189 68.931 55.2565 60.6451 55.2565 48.2628C55.2565 36.8115 47.8085 31.691 34.309 29.7359L25.8369 28.5256C16.9924 27.3153 14.8511 24.9878 14.8511 20.4259C14.8511 14.3744 18.7613 10.278 27.6058 10.278C36.4503 10.278 40.7329 14.2813 41.5708 22.1017H53.5807C53.5807 9.1608 45.1086 0.781795 27.8851 0.781795C10.6616 0.781795 2.1895 9.2539 2.1895 21.1707C2.1895 31.9703 7.5893 36.8115 21.4612 38.7666L29.9333 39.9769C40.0812 41.4665 42.5949 44.4457 42.5949 49.0076C42.5949 55.1522 38.2192 59.4348 28.1644 59.4348C17.8303 59.4348 13.827 55.4315 12.8029 46.6801H0.5137C0.5137 60.8313 9.4513 68.931 27.8851 68.931ZM88.9216 68.931C101.863 68.931 110.055 59.7141 110.055 43.9802C110.055 28.2463 101.863 19.0294 88.9216 19.0294C80.8219 19.0294 76.1669 22.5672 73.5601 28.1532V19.9604H62.1088V86.2476H74.1187V60.7382C76.8186 65.9518 81.6598 68.931 88.9216 68.931ZM86.0355 59.8072C78.9599 59.8072 74.1187 54.966 74.1187 43.9802C74.1187 32.9944 78.9599 28.1532 86.0355 28.1532C93.2042 28.1532 98.0454 32.9944 98.0454 43.9802C98.0454 54.966 93.2042 59.8072 86.0355 59.8072ZM139.463 68.931C152.403 68.931 159.758 62.6933 161.807 52.8247H150.728C149.331 57.759 145.421 60.7382 139.463 60.7382C132.108 60.7382 127.453 56.2694 127.08 46.4939H162.644C162.738 45.3767 162.831 44.4457 162.831 43.4216C162.831 29.2704 154.452 19.0294 138.904 19.0294C123.449 19.0294 115.07 29.1773 115.07 43.9802C115.07 59.1555 123.822 68.931 139.463 68.931ZM138.904 27.2222C145.514 27.2222 149.797 31.0393 150.821 38.6735H127.08C128.104 31.0393 132.294 27.2222 138.904 27.2222ZM192.007 68.931C206.996 68.931 214.63 59.7141 214.63 49.38H203.365C202.434 56.5487 198.337 59.8072 192.007 59.8072C184.372 59.8072 179.904 54.5936 179.904 43.9802C179.904 33.3668 184.372 28.1532 192.007 28.1532C199.268 28.1532 202.527 32.5289 203.365 38.208H214.63C214.63 28.8049 207.554 19.0294 192.007 19.0294C176.645 19.0294 167.894 28.898 167.894 43.9802C167.894 59.1555 176.645 68.931 192.007 68.931ZM257.26 68V39.0459H289.938V29.3635H257.26V12.0469H292.918V1.7128H244.599V68H257.26ZM310.687 68V19.9604H298.677V68H310.687ZM304.729 12.7917C309.198 12.7917 311.618 10.0918 311.618 6.554C311.618 3.0162 309.198 0.316296 304.729 0.316296C300.26 0.316296 297.746 3.0162 297.746 6.554C297.746 10.0918 300.26 12.7917 304.729 12.7917ZM362.046 68V36.2529C362.046 24.6154 356.554 19.0294 345.568 19.0294C337.747 19.0294 333.465 22.6603 330.858 27.7808V19.9604H319.407V68H331.417V41.1872C331.417 33.3668 335.513 28.8049 341.844 28.8049C347.709 28.8049 350.037 32.0634 350.037 38.5804V68H362.046ZM390.047 68.931C398.054 68.931 402.802 65.3932 405.408 59.8072V68H416.86V1.7128H404.85V27.2222C402.15 22.0086 397.309 19.0294 390.047 19.0294C377.106 19.0294 368.913 28.2463 368.913 43.9802C368.913 59.7141 377.106 68.931 390.047 68.931ZM392.84 59.8072C385.764 59.8072 380.923 54.966 380.923 43.9802C380.923 32.9944 385.764 28.1532 392.84 28.1532C400.009 28.1532 404.85 32.9944 404.85 43.9802C404.85 54.966 400.009 59.8072 392.84 59.8072ZM448.129 68.931C461.07 68.931 468.425 62.6933 470.473 52.8247H459.394C457.998 57.759 454.087 60.7382 448.129 60.7382C440.774 60.7382 436.119 56.2694 435.747 46.4939H471.311C471.404 45.3767 471.497 44.4457 471.497 43.4216C471.497 29.2704 463.118 19.0294 447.57 19.0294C432.116 19.0294 423.737 29.1773 423.737 43.9802C423.737 59.1555 432.488 68.931 448.129 68.931ZM447.57 27.2222C454.181 27.2222 458.463 31.0393 459.487 38.6735H435.747C436.771 31.0393 440.96 27.2222 447.57 27.2222ZM490.432 68V45.656C490.432 35.8805 495.366 30.3876 502.721 30.3876L507.656 30.4807V19.9604C506.538 19.6811 504.583 19.3087 503.28 19.3087C496.577 19.3087 492.387 22.1948 489.873 30.6669V19.9604H478.422V68H490.432Z" fill="url(#paint0_linear_13_2)"/>
<defs>
<linearGradient id="paint0_linear_13_2" x1="254" y1="83" x2="254" y2="-21" gradientUnits="userSpaceOnUse">
<stop stop-color="#198754"/>
<stop offset="1" stop-color="#83EE41"/>
</linearGradient>
</defs>
</svg>
