<svg width="100" height="100" viewBox="0 0 100 100" fill="none" xmlns="http://www.w3.org/2000/svg">
<g clip-path="url(#clip0_20_2)">
<path d="M73.3875 64.65C79.4393 56.3918 82.1499 46.1531 80.9769 35.9822C79.8039 25.8113 74.8338 16.4584 67.061 9.79456C59.2882 3.13076 49.2859 -0.352478 39.0552 0.0417294C28.8245 0.435937 19.1199 4.67851 11.8829 11.9207C4.64595 19.1628 0.410315 28.8705 0.0234291 39.1015C-0.363457 49.3324 3.12693 59.3322 9.7963 67.1003C16.4657 74.8683 25.8222 79.8317 35.9939 80.9974C46.1656 82.1631 56.4024 79.4452 64.6562 73.3875H64.65C64.8375 73.6375 65.0375 73.875 65.2625 74.1062L89.325 98.1687C90.4969 99.3415 92.0867 100.001 93.7447 100.001C95.4026 100.002 96.9929 99.3438 98.1656 98.1719C99.3384 97 99.9976 95.4101 99.9981 93.7522C99.9987 92.0943 99.3407 90.504 98.1687 89.3312L74.1062 65.2687C73.8828 65.0426 73.6425 64.8399 73.3875 64.65ZM75 40.625C75 45.1392 74.1109 49.6092 72.3834 53.7797C70.6559 57.9503 68.1238 61.7398 64.9318 64.9318C61.7398 68.1238 57.9503 70.6559 53.7797 72.3834C49.6092 74.1109 45.1392 75 40.625 75C36.1108 75 31.6408 74.1109 27.4703 72.3834C23.2997 70.6559 19.5102 68.1238 16.3182 64.9318C13.1262 61.7398 10.5941 57.9503 8.86664 53.7797C7.13914 49.6092 6.25 45.1392 6.25 40.625C6.25 31.5082 9.87164 22.7648 16.3182 16.3182C22.7648 9.87164 31.5082 6.25 40.625 6.25C49.7418 6.25 58.4852 9.87164 64.9318 16.3182C71.3784 22.7648 75 31.5082 75 40.625Z" fill="black"/>
</g>
<defs>
<clipPath id="clip0_20_2">
<rect width="100" height="100" fill="white"/>
</clipPath>
</defs>
</svg>
